<svg id="Layer_1" data-name="Layer 1" xmlns="http://www.w3.org/2000/svg" viewBox="0 0 1920 1080"><defs><style>.cls-1{fill:#010101;}.cls-2{fill:none;stroke:#000;stroke-linecap:round;stroke-miterlimit:10;stroke-width:13px;}.cls-3{fill:#e0e0de;}.cls-10,.cls-3,.cls-4,.cls-5,.cls-6,.cls-7,.cls-8,.cls-9{fill-rule:evenodd;}.cls-5{fill:#444545;}.cls-6{fill:#ccc;}.cls-7{fill:#afafb1;}.cls-8{fill:#989898;}.cls-9{fill:#cc85b0;}.cls-10{fill:#b5b5b6;}.cls-11{fill:#040404;}.cls-12{fill:#231f20;}.cls-13{fill:#3b54a3;}.cls-14{fill:#e92729;}</style></defs><title>KrisFades Barber Lounge - Full Lockup</title><path class="cls-1" d="M1268.44,693.38a63.07,63.07,0,0,0-12.87-23.54q-8.85-10.15-24-15.48T1195.14,649H1142.4v4.81l16.11,1V792.48l-16.11,1v4.81h56.19a96.13,96.13,0,0,0,27.78-3.72,63,63,0,0,0,20.93-10.35,59.38,59.38,0,0,0,14.24-16,70.1,70.1,0,0,0,8.32-20.3,101.43,101.43,0,0,0,2.61-23.59Q1272.47,706.78,1268.44,693.38Zm-73.2-20H1190a16,16,0,0,1,15.82-13.71h4.57a16,16,0,0,1,15.82,13.71h-26a9.1,9.1,0,0,1,7.86-4.57v-4.57A13.7,13.7,0,0,0,1195.24,673.43ZM1185.3,678H1231v4.57H1185.3Zm28.76,82.24H1200l26.47-26.47v14.09Zm12.36-5.92v5.92h-5.9Zm-32.93,5.92h-3.62V747.47l36.55-36.55v16.39ZM1189.87,741V724.63l36.55-36.55v16.39Zm16.94-53.88h14.1l-31,31v-14.1Zm-16.94,10.47V687.14h10.48Zm-4.57,67.19H1231v4.57H1185.3Zm25.13,22.85h-4.57A16,16,0,0,1,1190,773.94h26a9.12,9.12,0,0,1-7.88,4.57v4.57a13.72,13.72,0,0,0,12.91-9.14h5.2A16,16,0,0,1,1210.43,787.65Z"/><path class="cls-1" d="M387.34,798.34v-4.81l16.11-1V654.88l-16.11-1V649h59v4.81l-16.12,1V718.4h.21l59.33-63.52-13.49-1V649h33.9v4.81l-12.24,1-48.66,51.27,66.45,86.34,11.3,1v4.81H467.29v-4.81l13.5-1-50.34-68.65h-.21v68.65l16.12,1v4.81Z"/><path class="cls-1" d="M540.42,798.34v-4.81l16.12-1V654.88l-16.12-1V649H596.2a101,101,0,0,1,21,2,56.22,56.22,0,0,1,16.74,6.27,30.11,30.11,0,0,1,11.41,11.57,35,35,0,0,1,4,17.21q0,17.9-12,27.89t-32.54,12.92v.21A40.12,40.12,0,0,1,620,729.91a28.36,28.36,0,0,1,10.25,7,51.41,51.41,0,0,1,7.27,10.93q2.31,4.61,6.54,14.08t8.43,16.79a35.16,35.16,0,0,0,7,9.21,18,18,0,0,0,6.17,4,20.56,20.56,0,0,0,5.76.73v5.75H654.07a62.54,62.54,0,0,1-12.56-1,21.69,21.69,0,0,1-9.16-4.76,34.32,34.32,0,0,1-8.11-10.41q-3.56-6.64-12.14-27.79c-.83-2.09-2-4.79-3.61-8.11a61.06,61.06,0,0,0-4.08-7.53,65.5,65.5,0,0,0-4.08-5.39,15.12,15.12,0,0,0-4.81-4,11.68,11.68,0,0,0-5.18-1.2q-4.61,0-7,.1v64.26l16.11,1v4.81Zm42.91-76.07c.76.07,2.2.1,4.29.1q18.61,0,26.21-9.06t7.59-27.1a47.74,47.74,0,0,0-2.15-15.3,21.94,21.94,0,0,0-6.12-9.74,23.88,23.88,0,0,0-8.79-4.93,37.63,37.63,0,0,0-11-1.47,74,74,0,0,0-10,.84Z"/><path class="cls-1" d="M683.88,798.34v-4.81l16.12-1V654.88l-16.12-1V649h59v4.81l-16.11,1V792.49l16.11,1v4.81Z"/><path class="cls-1" d="M819.28,651.11A44.48,44.48,0,0,0,806,652.89a27.52,27.52,0,0,0-9.57,5,20.58,20.58,0,0,0-5.81,7.8,25.24,25.24,0,0,0-1.93,10,28.32,28.32,0,0,0,1,7.64,20,20,0,0,0,4.5,7.69,47.16,47.16,0,0,0,10,8.11,127.6,127.6,0,0,0,17.63,9q12.76,5.86,21.61,11A65.89,65.89,0,0,1,857.9,730a34.89,34.89,0,0,1,8,12.92A52.94,52.94,0,0,1,868.36,760a40.09,40.09,0,0,1-3,15.07,39.14,39.14,0,0,1-9.16,13.5,46.41,46.41,0,0,1-15.38,9.68A58.1,58.1,0,0,1,819.07,802q-13.82,0-23.23-2.57a47.32,47.32,0,0,1-15.12-6.64,24.89,24.89,0,0,1-8.21-9.26A23.64,23.64,0,0,1,770,773.12a19.23,19.23,0,0,1,1-6.43,15.2,15.2,0,0,1,3.09-5.23,14.53,14.53,0,0,1,5-3.56,16.69,16.69,0,0,1,6.75-1.31,15.91,15.91,0,0,1,6.28,1.2,14.21,14.21,0,0,1,4.76,3.25,15,15,0,0,1,3,4.81,16.27,16.27,0,0,1,1.09,6q0,7.43-4.29,11.2t-11.09,3.76v.43a16.71,16.71,0,0,0,2.88,2.32,29.58,29.58,0,0,0,6,3,58.16,58.16,0,0,0,9.42,2.59,68.94,68.94,0,0,0,13.24,1.11,48.16,48.16,0,0,0,12.5-1.67,39,39,0,0,0,11.1-4.83,27.1,27.1,0,0,0,7.9-7.65,17.79,17.79,0,0,0,3-10.17,22.74,22.74,0,0,0-1.78-9,24.85,24.85,0,0,0-6.69-8.54,83.28,83.28,0,0,0-13.66-9.33q-8.75-5-22.76-11.27a73.07,73.07,0,0,1-17-9.68,47.19,47.19,0,0,1-10.47-11.2,38.1,38.1,0,0,1-5.28-12.35,59.22,59.22,0,0,1-1.47-13.23,42.3,42.3,0,0,1,3.14-16.22,38.68,38.68,0,0,1,9.1-13.35,43.65,43.65,0,0,1,14.71-9,55.44,55.44,0,0,1,19.93-3.35,62.8,62.8,0,0,1,18.79,2.52,41,41,0,0,1,13.23,6.64,27.07,27.07,0,0,1,7.85,9.63A26.39,26.39,0,0,1,862,675.6a17.35,17.35,0,0,1-1.05,6,14.35,14.35,0,0,1-7.95,8.48,17.76,17.76,0,0,1-13,.16,15.13,15.13,0,0,1-4.86-3.14A13.66,13.66,0,0,1,832,682.4a15.63,15.63,0,0,1-1.1-6,16.33,16.33,0,0,1,1.25-6.54,13.93,13.93,0,0,1,3.4-4.81,14.38,14.38,0,0,1,5.08-2.93,19.45,19.45,0,0,1,6.28-1v-.42a28.66,28.66,0,0,0-2.51-2.36,24.39,24.39,0,0,0-5.24-3.24,42.51,42.51,0,0,0-8.26-2.83A49.48,49.48,0,0,0,819.28,651.11Z"/><path class="cls-1" d="M892.53,798.34v-4.81l16.11-1V654.88l-16.11-1V649h98.88l1.05,42.59H986.6a80,80,0,0,0-2.51-15,38.23,38.23,0,0,0-5.39-11.41,22.06,22.06,0,0,0-9.89-7.79,39.82,39.82,0,0,0-15.28-2.62,115,115,0,0,0-18.1,1.05v64.46c1.74.07,2.75.1,3,.1a68.78,68.78,0,0,0,11.72-.78,18.36,18.36,0,0,0,7.75-3.37,13.49,13.49,0,0,0,4.81-7.61,53.39,53.39,0,0,0,1.36-13.45h5.76v56.29H964.1q0-14.38-4.71-20t-15.69-5.57l-8.27.1v66.45l20.3,1v4.81Z"/><path class="cls-1" d="M996.11,798.34v-4.81l12.67-1,49.49-147.75H1063l51.17,147.75,13.82,1v4.81h-56v-4.81l14.13-1L1073.76,755h-46.88l-12.14,37.47,14.13,1v4.81Zm32.65-49.6,42.7-.83-20.93-64.26h-.42Z"/><path class="cls-1" d="M1296.72,798.34v-4.81l16.11-1V654.88l-16.11-1V649h103.07l1,42.59h-4.4a122.4,122.4,0,0,0-2.66-12.09,54,54,0,0,0-4-10,26.35,26.35,0,0,0-6.13-8,27.27,27.27,0,0,0-9-4.86,39.09,39.09,0,0,0-12.72-1.89q-8.9,0-22.29,1.05V718q3.15.32,11.41.31,11,0,15.7-5.39t4.7-19.62h5.76v56.2h-5.76q0-14.24-4.76-19.83t-15.64-5.6c-5.37,0-9.18.1-11.41.31v67.18q13.39,1.05,26.58,1.05a52.44,52.44,0,0,0,10.88-1,23.32,23.32,0,0,0,8.17-3.29,27.61,27.61,0,0,0,5.86-5.18,28.16,28.16,0,0,0,4.24-7.38,71.8,71.8,0,0,0,3-9c.76-3,1.57-6.7,2.4-11.09h4.5l-1.15,42.69Z"/><path class="cls-1" d="M1483.58,651.11a44.36,44.36,0,0,0-13.23,1.78,27.48,27.48,0,0,0-9.58,5,20.58,20.58,0,0,0-5.81,7.8,25.24,25.24,0,0,0-1.93,10,28.72,28.72,0,0,0,1,7.64,20,20,0,0,0,4.5,7.69,47.42,47.42,0,0,0,10,8.11,128.18,128.18,0,0,0,17.63,9q12.77,5.86,21.61,11A65.89,65.89,0,0,1,1522.2,730a34.89,34.89,0,0,1,8,12.92,52.94,52.94,0,0,1,2.46,17.11,40.09,40.09,0,0,1-3,15.07,39.14,39.14,0,0,1-9.16,13.5,46.41,46.41,0,0,1-15.38,9.68,58.07,58.07,0,0,1-21.72,3.72q-13.8,0-23.23-2.57A47.32,47.32,0,0,1,1445,792.8a24.89,24.89,0,0,1-8.21-9.26,23.64,23.64,0,0,1-2.51-10.42,19.23,19.23,0,0,1,1-6.43,15.2,15.2,0,0,1,3.09-5.23,14.53,14.53,0,0,1,5-3.56,16.69,16.69,0,0,1,6.75-1.31,15.91,15.91,0,0,1,6.28,1.2,14.21,14.21,0,0,1,4.76,3.25,15,15,0,0,1,3,4.81,16.27,16.27,0,0,1,1.1,6c0,5-1.44,8.68-4.29,11.2a16.23,16.23,0,0,1-11.1,3.76v.43a16.71,16.71,0,0,0,2.88,2.32,29.43,29.43,0,0,0,6,3,57.73,57.73,0,0,0,9.41,2.59,68.94,68.94,0,0,0,13.24,1.11,48.29,48.29,0,0,0,12.51-1.67,39,39,0,0,0,11.09-4.83,27.1,27.1,0,0,0,7.9-7.65,17.79,17.79,0,0,0,3-10.17,22.74,22.74,0,0,0-1.78-9,24.73,24.73,0,0,0-6.69-8.54,83.28,83.28,0,0,0-13.66-9.33q-8.73-5-22.76-11.27a73.28,73.28,0,0,1-17-9.68,47.4,47.4,0,0,1-10.47-11.2,38.1,38.1,0,0,1-5.28-12.35,59.22,59.22,0,0,1-1.47-13.23,42.3,42.3,0,0,1,3.14-16.22,38.57,38.57,0,0,1,9.11-13.35,43.51,43.51,0,0,1,14.7-9,55.44,55.44,0,0,1,19.93-3.35,62.8,62.8,0,0,1,18.79,2.52,41,41,0,0,1,13.23,6.64,27.07,27.07,0,0,1,7.85,9.63,26.39,26.39,0,0,1,2.62,11.46,17.35,17.35,0,0,1-1,6,14.35,14.35,0,0,1-8,8.48,17.76,17.76,0,0,1-13,.16,15.13,15.13,0,0,1-4.86-3.14,13.66,13.66,0,0,1-3.14-4.71,15.82,15.82,0,0,1-1.1-6,16.33,16.33,0,0,1,1.25-6.54,13.82,13.82,0,0,1,3.41-4.81,14.25,14.25,0,0,1,5.07-2.93,19.49,19.49,0,0,1,6.28-1v-.42a28.66,28.66,0,0,0-2.51-2.36,24.55,24.55,0,0,0-5.23-3.24,42.86,42.86,0,0,0-8.27-2.83A49.48,49.48,0,0,0,1483.58,651.11Z"/><path d="M496.88,859.76a90.33,90.33,0,0,1,12.9.71,22.56,22.56,0,0,1,8.3,3,14.24,14.24,0,0,1,5.39,5.41,16,16,0,0,1,1.68,7.61q0,12.25-12.46,15.17v.2q7.17.15,11.22,4.18T528,907.2a17.34,17.34,0,0,1-3,9.71,18.14,18.14,0,0,1-7.85,6.7q-4.92,2.22-15.74,2.22H486.25V859.76Zm23.38,16.9a12.29,12.29,0,0,0-2-7.34,12,12,0,0,0-6.15-4.2q-4.16-1.41-13.19-1.41H490.6V890h13.59a22.41,22.41,0,0,0,9.05-1.55,11.25,11.25,0,0,0,5.24-4.6A14,14,0,0,0,520.26,876.66Zm2.86,30.54a14,14,0,0,0-2.44-8.47q-2.46-3.35-8.38-4.28a60.92,60.92,0,0,0-8-.39H490.6v27.82h11.47A42.11,42.11,0,0,0,514,920.45a11.58,11.58,0,0,0,6.94-5.12A15.5,15.5,0,0,0,523.12,907.2Z"/><path d="M570.24,912.59a12.72,12.72,0,0,1,4.47-10.13q4.47-3.86,11.54-3.86a41.84,41.84,0,0,1,14.19,2.72v-5.93q0-6.57-3.41-9.93t-10.88-3.36a38.64,38.64,0,0,0-11.86,2.32v-3.71a16.58,16.58,0,0,1,5-1.56,36.94,36.94,0,0,1,6.89-.66q9.24,0,13.74,4.2t4.5,12.7v15.67q0,4.89.4,14.77h-3.56l-.69-5.38h-.2a19.36,19.36,0,0,1-6.63,4.64,20.07,20.07,0,0,1-8.45,2q-6.76,0-10.89-3.61T570.24,912.59Zm30.2,3.7V904.78a42.59,42.59,0,0,0-6.65-1.95,44.3,44.3,0,0,0-8-.57q-5.38,0-8.43,2.69a9.7,9.7,0,0,0-3,7.64q0,5.53,3,8.23a11.51,11.51,0,0,0,8,2.69,17.29,17.29,0,0,0,9-2.12A26.92,26.92,0,0,0,600.44,916.29Z"/><path d="M655.51,879.67l.69,8.21h.1a20.84,20.84,0,0,1,7.74-6.72,21.64,21.64,0,0,1,10.3-2.67h1.29v3.9h-1.29a20.22,20.22,0,0,0-10.45,3,19.7,19.7,0,0,0-7.59,7.76v32.71h-3.95V879.67Z"/><path d="M719.68,920.45h-.1l-.49,5.38h-3.56q.3-7.26.29-14.48V854.27h4v31.19h.1a18,18,0,0,1,6.32-5.09,18.31,18.31,0,0,1,8.26-1.88q9.43,0,14.53,6.1t5.09,18.06a30.1,30.1,0,0,1-2.75,13.52,19,19,0,0,1-7.29,8.21,19.25,19.25,0,0,1-10,2.69,17,17,0,0,1-8.33-1.88A24.48,24.48,0,0,1,719.68,920.45Zm30.25-17.8q0-20.55-15.37-20.55-8.65,0-14.78,7.61V916.1a19.48,19.48,0,0,0,5.51,5,15.48,15.48,0,0,0,8.57,2.3,14.05,14.05,0,0,0,11.74-5.58Q749.92,912.24,749.93,902.65Z"/><path d="M795.21,902.26a29.45,29.45,0,0,1,2.53-12.6,19.52,19.52,0,0,1,6.91-8.28,17.61,17.61,0,0,1,9.89-2.89q8.1,0,13,5.31t4.84,16.73v1.73h-33q0,10.92,4.79,16t13.49,5.11a30.62,30.62,0,0,0,13.05-2.62v3.71q-4.59,2.57-13.05,2.57-10.77,0-16.6-6.48T795.21,902.26ZM814.54,882a13.33,13.33,0,0,0-10.33,4.67,19.53,19.53,0,0,0-4.74,12h28.81q-.15-8.21-3.61-12.45T814.54,882Z"/><path d="M881.13,879.67l.69,8.21h.1a20.88,20.88,0,0,1,7.73-6.72A21.71,21.71,0,0,1,900,878.49h1.28v3.9H900a20.2,20.2,0,0,0-10.45,3,19.7,19.7,0,0,0-7.59,7.76v32.71H878V879.67Z"/><path d="M991.53,859.76h4.34v62.12h33.51v4H991.53Z"/><path d="M1069.58,902.85q0-11.07,5.66-17.72t15-6.64q9.43,0,15,6.62t5.56,17.74q0,10.83-5.69,17.52a18.53,18.53,0,0,1-14.87,6.7q-9.43,0-15.07-6.6T1069.58,902.85Zm37.12,0q0-9.54-4.45-15.15a14.49,14.49,0,0,0-12-5.6,14.66,14.66,0,0,0-12.08,5.58q-4.49,5.58-4.48,15.17t4.43,15q4.41,5.54,12.13,5.53a14.52,14.52,0,0,0,12-5.51Q1106.7,912.4,1106.7,902.85Z"/><path d="M1154.41,908.14V879.67h3.95v29.46q0,7.61,3.54,11t9.61,3.33a14.83,14.83,0,0,0,7.29-1.63,10.6,10.6,0,0,0,4.4-4.5q1.46-2.87,1.45-8.35V879.67h4v28.57a30.29,30.29,0,0,1-1,8.7,13.58,13.58,0,0,1-3.36,5.56,14.12,14.12,0,0,1-5.49,3.48,23.39,23.39,0,0,1-14.63-.17,15.16,15.16,0,0,1-5.51-3.51,13.76,13.76,0,0,1-3.21-5.26A29.82,29.82,0,0,1,1154.41,908.14Z"/><path d="M1238.74,879.67l.69,7.52h.1a21.23,21.23,0,0,1,6.85-6.4,16.84,16.84,0,0,1,8.62-2.3q7.32,0,11,4.3t3.73,12.6v30.44h-3.91v-30q0-6.92-2.67-10.35t-8.69-3.43a14.67,14.67,0,0,0-8.16,2.59,23.44,23.44,0,0,0-6.82,7v34.1h-4V879.67Z"/><path d="M1317.14,947.48v-4.35a33.42,33.42,0,0,0,6.53,2.52,28.75,28.75,0,0,0,7.06.74q17.4,0,17.4-18.53v-7h-.2a18,18,0,0,1-6,4.42,18.88,18.88,0,0,1-8.13,1.76q-9.3,0-14.61-6.4t-5.31-17.62q0-11.46,5.51-18t15.4-6.55a15.25,15.25,0,0,1,8.08,2,23.26,23.26,0,0,1,5.31,4.27h.2l.59-5.09h3.16V928q0,7.86-2.44,12.58a15.93,15.93,0,0,1-7.22,7.09,26.71,26.71,0,0,1-11.93,2.37,39.82,39.82,0,0,1-7.81-.72A19.17,19.17,0,0,1,1317.14,947.48Zm31-30.74V889.21a16,16,0,0,0-5.73-5,15.73,15.73,0,0,0-7.76-2.15q-7.86,0-12.26,5.56T1318,903q0,9.84,4.18,15.15t12.08,5.31a16.91,16.91,0,0,0,7.34-1.78A20.71,20.71,0,0,0,1348.13,916.74Z"/><path d="M1396.63,902.26a29.45,29.45,0,0,1,2.52-12.6,19.54,19.54,0,0,1,6.92-8.28,17.58,17.58,0,0,1,9.88-2.89q8.11,0,13,5.31t4.85,16.73v1.73h-33q0,10.92,4.8,16t13.49,5.11a30.62,30.62,0,0,0,13-2.62v3.71q-4.61,2.57-13,2.57-10.78,0-16.61-6.48T1396.63,902.26ZM1416,882a13.32,13.32,0,0,0-10.32,4.67,19.48,19.48,0,0,0-4.75,12h28.81c-.09-5.47-1.3-9.62-3.6-12.45S1420.4,882,1416,882Z"/><line class="cls-2" x1="1149.78" y1="142.65" x2="770.22" y2="522.21"/><line class="cls-2" x1="1149.78" y1="522.21" x2="770.22" y2="142.65"/><path class="cls-3" d="M1162.93,272.54c2.84,2.56,3.43,6.47,3.29,10.82,0,1.28-.18,2.6-.31,3.91a4,4,0,0,1-1.8,2.94l-42.61,27.63a4.72,4.72,0,0,1-4.91.14l-2.73-1.55-5.36-3.05s-14.46,8.41-22.69,18.16a11.42,11.42,0,0,1-4.53,4.53s-4.67,8.09-10.72,9.13a2.42,2.42,0,1,1-.87-4.77c2.7-.49,7.2-2.32,7.06-8.89C1081.59,323.79,1144,283.12,1162.93,272.54Z"/><path class="cls-4" d="M1086,326.52c15.32,11.49,58.17,35.07,80.76,47.24a11.69,11.69,0,0,1,4,3.43c5.81,8-1.73,21.16-13,17.32-26.42-8.92-67.2-47.13-79.4-59a5.93,5.93,0,0,1-1.8-4.25,5.16,5.16,0,0,1,.1-1,6,6,0,0,1,.94-2.32A5.89,5.89,0,0,1,1086,326.52Z"/><path class="cls-5" d="M1086,326.52c15.32,11.49,58.17,35.07,80.76,47.24a21,21,0,0,1,4,3.43c2,2-1.39,16.67-11.62,13.8-8.51-2.39-59.17-34.83-82.55-60.77a6.11,6.11,0,0,1,.93-2.31A6,6,0,0,1,1086,326.52Z"/><path class="cls-6" d="M1166.18,283.36c0,1.28-.17,2.6-.31,3.91a3.92,3.92,0,0,1-1.8,2.94l-42.6,27.63a4.72,4.72,0,0,1-4.91.14l-2.74-1.55Z"/><path class="cls-3" d="M1082.28,328.18a2.27,2.27,0,0,1,2.25,1.91,1.11,1.11,0,0,1,0,.38v.2a2.26,2.26,0,0,1-4.5,0v-.2a1.58,1.58,0,0,1,0-.38A2.16,2.16,0,0,1,1082.28,328.18Z"/><path class="cls-7" d="M1080,330.09h4.49a1.11,1.11,0,0,1,0,.38v.2H1080v-.2A1.21,1.21,0,0,1,1080,330.09Z"/><path class="cls-8" d="M855,282.22l-68.66,60.42,2.61,5.45s4.86-4.63,9.67-3.76c0,0,8.14-7.67,22.09-20.12,15.4-13.76,37.31-36.15,34.29-42Z"/><path class="cls-5" d="M752.45,355.84a15.3,15.3,0,1,0,25.29,13.23v.06s2-11.46,12.8-22.4c.9-1-.88-7.12-.88-7.12-13.29,11.72-27,12.37-27,12.37h.07a15.58,15.58,0,0,0-10.3,3.86Zm2,2.24a12.33,12.33,0,1,1-1.11,17.4,12.33,12.33,0,0,1,1.11-17.4Z"/><path class="cls-9" d="M878.51,375.24l-.08.1c-3,3.18-6.45,4.74-10.1,4.68-6.48-.07-11.31-5.18-11.52-5.44a1.52,1.52,0,0,1,.08-2.19,1.55,1.55,0,0,1,2.14,0h0c.05,0,4.19,4.44,9.3,4.43,2.74,0,5.46-1.28,7.88-3.77a1.5,1.5,0,0,1,2.13,0,1.68,1.68,0,0,1,.17,2.2Z"/><path class="cls-10" d="M750.2,283.78l71.42,57.11-2.36,5.56s-5-4.43-9.86-3.28c0,0-8.47-7.25-23-19.08-16-12.9-38.92-34.35-36.2-40.31Z"/><path class="cls-8" d="M806.31,328.65,750.2,283.78c-.41.94-.23,2.16.47,3.72l50.22,40.16Z"/><path class="cls-9" d="M845.62,349.18h0c.09,0-13.62-.07-27.43-11.12,0,0-1.51,6.28-.52,7.15C828.9,355.6,831.47,367,831.47,367a.06.06,0,0,0,0-.09,15.33,15.33,0,1,0,24.68-14.48,16.08,16.08,0,0,0-10.52-3.23Zm10.54,23a12.32,12.32,0,1,1-1.92-17.31,12.31,12.31,0,0,1,1.92,17.31Z"/><path class="cls-8" d="M807.88,330.6a2.36,2.36,0,1,0-1.07,3.16,2.35,2.35,0,0,0,1.07-3.16Z"/><path class="cls-8" d="M801.07,329.66,855,282.21c.49.91.3,2.16-.24,3.73l-48.23,42.52Z"/><path class="cls-8" d="M803.6,330.66a2.36,2.36,0,1,0,3.09-1.24,2.5,2.5,0,0,0-3.09,1.24Z"/><path class="cls-4" d="M878.51,375.24l-.08.1c-3,3.18-6.45,4.74-10.1,4.68-6.48-.07-11.31-5.18-11.52-5.44a1.52,1.52,0,0,1,.08-2.19,1.55,1.55,0,0,1,2.14,0h0c.05,0,4.19,4.44,9.3,4.43,2.74,0,5.46-1.28,7.88-3.77a1.5,1.5,0,0,1,2.13,0,1.68,1.68,0,0,1,.17,2.2Z"/><path class="cls-4" d="M845.62,349.18h0c.09,0-13.62-.07-27.43-11.12,0,0-1.51,6.28-.52,7.15C828.9,355.6,831.47,367,831.47,367a.06.06,0,0,0,0-.09,15.33,15.33,0,1,0,24.68-14.48,16.08,16.08,0,0,0-10.52-3.23Zm10.54,23a12.32,12.32,0,1,1-1.92-17.31,12.28,12.28,0,0,1,1.92,17.31Z"/><polygon class="cls-11" points="964.54 168.41 999.71 203.59 988.86 203.59 965.9 179.34 964.52 180.73 988.67 203.59 968.45 203.59 949.03 184.17 964.54 168.41"/><path class="cls-11" d="M929.55,130h-.39v45.86a10.28,10.28,0,0,0,16.43,8.25,12.86,12.86,0,0,0,1.7-1.48L999.71,130h-8.22L969,153.79l-1.39-1.39L991.24,130H972.9l-18.2,18.19a3,3,0,0,0,0,4.16l2.81,2.81a1,1,0,0,1,0,1.38l-10.32,10.33V147.64A17.64,17.64,0,0,0,929.55,130Zm11.93,45.58a2.21,2.21,0,1,1-2.21-2.21A2.2,2.2,0,0,1,941.48,175.58Z"/><path class="cls-11" d="M947.29,185.67v17.92h-19V178.9c0,8.46,10.52,13.32,17.3,8.25A13.81,13.81,0,0,0,947.29,185.67Z"/><path class="cls-12" d="M940.4,534.86v-2.28l7.61-.49v-65l-7.61-.49v-2.28h46.71l.49,20.12h-2.77a37.42,37.42,0,0,0-1.18-7.09A17.93,17.93,0,0,0,981.1,472a10.41,10.41,0,0,0-4.67-3.68,18.82,18.82,0,0,0-7.21-1.24,54.29,54.29,0,0,0-8.55.5V498l1.43.05a32,32,0,0,0,5.53-.37,8.72,8.72,0,0,0,3.66-1.59,6.31,6.31,0,0,0,2.27-3.6,25.1,25.1,0,0,0,.65-6.35h2.72v26.59h-2.72c0-4.53-.74-7.68-2.23-9.43s-4-2.63-7.41-2.63l-3.9,0v31.38l9.58.49v2.28Z"/><polygon class="cls-13" points="1200.35 687.14 1206.81 687.14 1189.87 704.07 1189.87 697.61 1200.35 687.14"/><path class="cls-14" d="M1220.91,687.14l-31,31v6.46l36.37-36.37a.65.65,0,0,0-.46-1.11Z"/><polygon class="cls-13" points="1189.87 741.02 1189.87 747.47 1226.42 710.92 1226.42 704.47 1189.87 741.02"/><polygon class="cls-14" points="1226.42 727.31 1226.42 733.77 1199.95 760.24 1193.49 760.24 1226.42 727.31"/><polygon class="cls-13" points="1226.42 747.86 1214.06 760.24 1220.52 760.24 1226.42 754.32 1226.42 747.86"/></svg>